<svg width="186" height="180" viewBox="0 0 186 180" fill="none" xmlns="http://www.w3.org/2000/svg">
<path d="M157.463 165.852C151.538 169.478 142.284 167.061 137.568 159.963C129.202 147.368 125.754 140.542 120.612 126.347C125.565 123.326 128.041 121.809 132.994 118.787C137.923 135.033 147.023 152.534 157.474 165.852H157.463Z" fill="#FF4262"/>
<path d="M172.132 170.224C166.385 173.744 157.048 171.433 152.036 164.537C143.149 152.297 139.428 145.614 133.681 131.608C138.504 128.658 140.921 127.188 145.744 124.25C151.337 140.27 161.148 157.38 172.12 170.236L172.132 170.224Z" fill="#F5E905"/>
<path d="M185.142 173.59C179.549 177.002 170.176 174.81 164.927 168.104C155.614 156.207 151.656 149.666 145.4 135.862C150.104 132.983 152.462 131.549 157.178 128.67C163.339 144.453 173.731 161.172 185.154 173.59H185.142Z" fill="#00C6ED"/>
<path d="M90.7995 32.2654C94.7571 30.9502 98.7621 29.8008 102.803 28.8292V5.14282C86.1191 5.55754 72.7178 19.1959 72.7178 35.986C72.7178 37.5501 72.8363 39.0905 73.0614 40.5835C78.3698 36.8747 84.5076 34.3627 90.7877 32.2773L90.7995 32.2654Z" fill="#FF4262"/>
<path d="M148.718 91.0251C147 86.1196 142.675 75.0644 141.656 72.4339C140.98 70.6684 140.435 68.737 139.973 66.7345C141.751 67.3506 144.12 68.2038 146.81 69.0687C145.945 58.0965 138.919 51.8757 138.919 51.8757C138.919 51.8757 139.914 51.5439 143.694 51.852C142.592 42.8822 137.769 33.1186 135.66 28.7581C135.174 27.7391 134.76 26.6964 134.345 25.6418C129.7 13.6386 118.064 5.11914 104.426 5.11914C86.6997 5.11914 78.6187 18.6153 78.6187 36.3415C78.6187 51.5321 84.6854 63.6656 97.5654 66.8293C82.7777 78.5362 77.9551 97.1037 85.5741 112.97C90.7403 123.729 94.5438 128.433 103.383 135.436L113.763 156.657L121.785 156.574L122.922 146.704L130.387 161.124L141.727 161.148L143.729 146.23C169.241 136.383 153.908 105.908 148.694 91.037L148.718 91.0251Z" fill="url(#paint0_linear_175_20358)"/>
<path d="M111.855 152.794L115.943 160.958L121.263 161.219L122.211 152.913L111.855 152.794Z" fill="#D61847"/>
<path d="M115.706 159.264C110.813 160.366 100.516 162.795 95.5035 168.743C94.0223 170.509 93.9039 173.282 94.0105 173.258C94.0934 173.234 103.3 168.542 103.3 168.542C100.302 170.698 98.2406 172.5 96.8661 174.656C95.4916 176.813 96.5107 178.578 96.4988 178.59C108.123 168.992 125.754 163.672 130.032 163.281C130.15 162.286 128.148 160.129 125.683 159.359C123.444 158.66 121.18 158.044 115.694 159.276L115.706 159.264Z" fill="#D61847"/>
<path d="M138.978 168.02C133.669 167.25 122.484 165.769 115.22 169.798C113.064 170.995 111.903 173.72 112.009 173.732C112.104 173.732 123.076 172.57 123.076 172.57C119.273 173.578 116.524 174.597 114.332 176.22C112.14 177.843 112.483 180 112.471 180C127.721 174.845 147.343 176.232 151.763 177.476C152.261 176.516 151.076 173.613 148.907 171.907C146.928 170.355 144.914 168.885 138.978 168.02Z" fill="#D61847"/>
<path d="M130.352 161.006L134.819 170.142L140.696 170.379L141.751 161.136L130.352 161.006Z" fill="#D61847"/>
<path d="M87.9084 83.9749C89.0815 87.5533 92.1267 90.1008 94.4136 85.847L95.0061 86.6409C96.7123 88.9159 98.4778 87.8851 99.7457 85.847L100.279 86.6409C102.483 90.0179 105.457 86.7594 106.263 83.9749C106.215 84.7924 106.026 85.61 105.718 86.4039C105.113 88.0746 103.395 89.6743 101.428 89.1055C100.457 88.8211 99.722 88.1457 99.1769 87.4348H100.291C98.703 89.9586 95.4919 89.9586 93.9159 87.4348H95.0298C91.9727 91.4516 88.0269 88.0035 87.9321 83.9749H87.9084Z" fill="#D61847"/>
<path d="M88.773 93.5252C89.7091 96.4875 91.9486 99.272 94.034 95.4685C96.1195 99.272 98.3589 96.4875 99.295 93.5252C99.5675 95.7528 98.3471 98.964 95.5862 98.6203C94.6383 98.4426 93.9392 97.8146 93.4534 97.1629H94.6265C91.7945 100.824 88.2398 97.0681 88.7849 93.5134L88.773 93.5252Z" fill="#D61847"/>
<path d="M91.0836 104.308C93.3112 108.301 95.5744 108.289 97.802 104.308C97.885 105.256 97.6836 106.239 97.1622 107.104C94.899 110.683 90.657 107.922 91.0836 104.308Z" fill="#D61847"/>
<g style="mix-blend-mode:multiply">
<g style="mix-blend-mode:multiply">
<path d="M89.5554 14.2311C91.155 11.2925 95.006 9.74026 98.1934 10.8067C95.5866 12.7262 92.7665 13.8519 89.5554 14.2311Z" fill="#F5E905"/>
</g>
</g>
<path d="M91.7591 31.59C95.6101 30.3103 99.5203 29.1965 103.466 28.2367V5.14282C87.1972 5.54569 74.1277 18.8522 74.1277 35.2158C74.1277 36.7444 74.2462 38.2374 74.4595 39.7066C79.6375 36.0808 85.6213 33.6399 91.7473 31.6019L91.7591 31.59Z" fill="#FF4262"/>
<path d="M90.3964 32.2654C94.354 30.9502 98.359 29.8008 102.4 28.8292V5.14282C85.716 5.55754 72.3147 19.1959 72.3147 35.986C72.3147 37.5501 72.4332 39.0905 72.6583 40.5835C77.9667 36.8747 84.1045 34.3627 90.3846 32.2773L90.3964 32.2654Z" fill="#FF4262"/>
<path d="M118.503 44.7662C115.623 51.2832 120.493 53.9019 117.958 59.0562C115.991 63.0494 112.306 65.4429 106.618 66.924C102.364 68.0378 97.8496 67.3387 94.2593 64.8267C91.1549 62.6465 87.9556 61.2128 85.2777 58.3097C80.0404 52.634 77.3625 44.6003 78.0379 36.5785C78.5593 30.3577 81.0476 24.4095 85.0644 19.8594C87.0195 17.6436 88.9746 15.7596 91.6288 14.705C95.0414 13.3424 96.9491 11.411 100.575 11.0437C113.099 9.76396 122.247 17.2289 124.866 20.9495C127.484 24.6701 128.752 28.2723 128.089 32.8934C126.904 41.1759 120.173 41.0219 118.514 44.7662H118.503Z" fill="white"/>
<path d="M103.502 38.5573C103.193 37.3961 102.328 35.832 99.1055 39.3986C83.7254 35.3936 76.9951 49.8021 76.9951 49.8021L97.3756 60.1345L102.53 50.987L103.502 38.5573Z" fill="#ED5700"/>
<path d="M102.85 48.001C101.155 46.7331 89.6737 44.3633 76.9714 49.8257C77.5402 52.2904 79.8626 54.9209 81.4622 56.8404C83.1567 58.8785 85.1236 60.6914 87.2683 62.2436C89.413 63.7958 91.6643 65.0163 94.0578 66.0116C94.6266 66.2486 101.155 68.2748 101.167 68.0852L102.838 48.0128L102.85 48.001Z" fill="#FF9000"/>
<path d="M106.843 4.97685C106.725 4.965 106.215 4.91761 106.097 4.91761C87.0552 3.32983 70.3243 17.4777 68.7246 36.531C68.0611 44.5292 69.163 48.546 73.2391 54.7786C73.6183 52.9302 73.7013 52.1244 74.2582 49.3991C74.6255 47.5862 76.391 46.2236 78.2513 45.9273C79.7087 45.6904 81.261 46.1051 82.671 45.6667C84.2114 45.1809 85.2541 43.7945 86.3324 42.5978C87.4107 41.401 88.8563 40.2398 90.4559 40.4531C92.3399 40.7019 93.5366 42.7162 95.3733 43.2139C96.4989 43.5101 97.6838 43.2021 98.845 43.2021C101.227 43.2021 102.104 46.7568 102.779 48.7356L106.831 4.9887L106.843 4.97685Z" fill="#F5E905"/>
<path d="M89.7213 9.58624C79.9576 18.4731 72.3149 30.3577 72.5519 43.8538C72.386 45.7852 72.7533 47.6811 72.6704 49.7073L72.4571 49.7665C70.5139 42.1476 70.6916 33.8887 74.0686 26.6963C77.3034 19.8713 83.2279 12.7618 89.7094 9.58624H89.7213Z" fill="white"/>
<g style="mix-blend-mode:multiply">
<g style="mix-blend-mode:multiply">
<path d="M91.3328 12.9158C93.1694 10.1194 97.1388 8.89895 100.22 10.2261C97.4706 11.9205 94.5676 12.8092 91.3328 12.9158Z" fill="#F5E905"/>
</g>
</g>
<path d="M115.99 21.3609L115.979 21.3599C112.561 21.0748 109.56 23.6138 109.275 27.0311L108.878 31.7897C108.593 35.2069 111.132 38.2083 114.549 38.4934L114.561 38.4944C117.978 38.7796 120.979 36.2405 121.265 32.8233L121.662 28.0647C121.947 24.6474 119.408 21.6461 115.99 21.3609Z" fill="#231F20"/>
<path d="M112.128 26.6844C113.62 26.6844 114.829 25.4749 114.829 23.9828C114.829 22.4908 113.62 21.2812 112.128 21.2812C110.636 21.2812 109.426 22.4908 109.426 23.9828C109.426 25.4749 110.636 26.6844 112.128 26.6844Z" fill="white"/>
<path d="M115.552 28.4737C116.246 28.4737 116.808 27.9113 116.808 27.2177C116.808 26.524 116.246 25.9617 115.552 25.9617C114.858 25.9617 114.296 26.524 114.296 27.2177C114.296 27.9113 114.858 28.4737 115.552 28.4737Z" fill="white"/>
<path d="M104.604 30.8316C104.604 30.8316 113.49 27.7153 125.043 33.7939C121.785 38.0951 113.929 40.7611 113.929 40.7611L104.592 30.8316H104.604Z" fill="white"/>
<path d="M106.452 31.0804C111.713 27.6442 119.652 28.9713 123.349 34.102C118.076 31.1515 112.507 30.2036 106.452 31.0804Z" fill="#231F20"/>
<path d="M112.993 17.608C118.301 15.4278 125.091 20.3214 124.392 26.092L124.178 26.1867C121.998 21.8381 117.685 18.8403 112.957 17.8331L112.993 17.5961V17.608Z" fill="#231F20"/>
<path d="M62.638 22.5723C63.0717 11.4362 49.577 1.86938 32.4968 1.20426C15.4166 0.539154 1.21883 9.02759 0.785186 20.1637C0.35154 31.2998 13.8462 40.8666 30.9264 41.5317C48.0066 42.1969 62.2044 33.7084 62.638 22.5723Z" fill="url(#paint1_linear_175_20358)"/>
<path d="M54.3516 31.7796C55.0862 34.3034 57.3494 40.4057 62.8355 43.7827C63.5583 44.2211 63.3687 45.2639 62.563 45.3823C54.4345 46.5554 48.5455 44.2804 43.0001 38.5573C42.5972 38.1425 42.6683 37.4671 43.1423 37.1828L53.0363 31.2582C53.5221 30.962 54.1857 31.2227 54.3516 31.7914V31.7796Z" fill="url(#paint2_linear_175_20358)"/>
<g style="mix-blend-mode:multiply">
<g style="mix-blend-mode:multiply">
<path d="M25.9254 21.0087C26.589 20.3096 27.5014 19.5631 28.6744 18.7692C29.4802 18.2123 30.0845 17.7502 30.4992 17.3473C30.9139 16.9563 31.1627 16.506 31.2575 16.0202C31.3879 15.3448 31.1983 14.7642 30.7006 14.2903C30.203 13.8163 29.492 13.5201 28.5678 13.4134C27.6435 13.3068 26.7193 13.4134 25.878 13.7807C25.0249 14.1362 24.2903 14.6813 23.6622 15.4278L18.9226 11.9915C20.2023 10.463 21.8138 9.34918 23.757 8.65009C25.7003 7.95099 27.9279 7.7377 30.4281 8.03393C33.2363 8.36571 35.3929 9.21884 36.874 10.5696C38.367 11.9323 38.912 13.6504 38.521 15.7358C38.3433 16.6956 38.0115 17.5251 37.5375 18.2242C37.0636 18.9233 36.5541 19.492 35.9972 19.9423C35.4403 20.3925 34.7412 20.8902 33.888 21.4353C32.9519 22.0159 32.2528 22.5254 31.7907 22.9638C31.3168 23.4022 31.0324 23.9354 30.9021 24.5634L24.5983 23.8169C24.8235 22.6439 25.2619 21.7078 25.9254 21.0087ZM23.3186 32.0521C22.7025 31.2463 22.4892 30.3339 22.6788 29.3031C22.8802 28.2485 23.4134 27.4309 24.2903 26.8385C25.1671 26.246 26.1861 26.0209 27.371 26.1631C28.5559 26.3052 29.4565 26.7555 30.0845 27.5257C30.7125 28.2959 30.9257 29.2083 30.7243 30.2628C30.5347 31.2937 29.9897 32.1232 29.0891 32.7393C28.2005 33.3673 27.1577 33.6043 25.9847 33.4621C24.8116 33.3199 23.9348 32.8578 23.3186 32.0521Z" fill="#00C6ED"/>
</g>
</g>
<g style="mix-blend-mode:multiply">
<g style="mix-blend-mode:multiply">
<path d="M43.0831 26.803C43.4741 26.3883 44.0192 25.9498 44.6946 25.4759C45.1685 25.156 45.524 24.8716 45.7728 24.6346C46.0217 24.3976 46.1639 24.1369 46.2231 23.8526C46.2942 23.4497 46.1876 23.1061 45.8913 22.8335C45.5951 22.5492 45.1804 22.3833 44.6353 22.3122C44.0903 22.2411 43.5452 22.3122 43.0475 22.5255C42.5499 22.7387 42.1115 23.0587 41.7441 23.4971L38.9478 21.4709C39.7061 20.5704 40.654 19.9187 41.7915 19.5039C42.9409 19.0892 44.2443 18.9707 45.7254 19.1485C47.3843 19.3499 48.6522 19.8476 49.529 20.6415C50.4058 21.4472 50.7258 22.4544 50.5006 23.6867C50.394 24.2554 50.2044 24.7412 49.92 25.156C49.6475 25.5707 49.3394 25.9025 49.0076 26.175C48.6759 26.4357 48.2611 26.7319 47.7635 27.0518C47.2184 27.3954 46.8037 27.6917 46.5193 27.9523C46.2468 28.213 46.0691 28.5211 45.998 28.9003L42.2773 28.4619C42.4077 27.7746 42.6684 27.2177 43.0594 26.803H43.0831ZM41.5546 33.3081C41.1872 32.8342 41.0687 32.2891 41.1754 31.6848C41.2939 31.0687 41.6138 30.5828 42.1233 30.2274C42.6328 29.8837 43.2371 29.7416 43.9362 29.8245C44.6353 29.9074 45.1685 30.18 45.5359 30.6302C45.9032 31.0805 46.0335 31.6256 45.915 32.2417C45.7965 32.846 45.4766 33.3318 44.9552 33.6992C44.4339 34.0665 43.8177 34.2087 43.1186 34.1257C42.4195 34.0428 41.91 33.7703 41.5427 33.2963L41.5546 33.3081Z" fill="#00C6ED"/>
</g>
</g>
<path d="M25.4515 20.3689C26.1151 19.6698 27.0275 18.9233 28.2005 18.1294C29.0063 17.5725 29.6106 17.1104 30.0253 16.7075C30.44 16.3165 30.6889 15.8662 30.7836 15.3804C30.914 14.705 30.7244 14.1244 30.2267 13.6504C29.7291 13.1765 29.0181 12.8802 28.0939 12.7736C27.1697 12.667 26.2454 12.7736 25.4042 13.1409C24.551 13.4964 23.8164 14.0414 23.1884 14.7879L18.4487 11.3517C19.7284 9.82317 21.3399 8.70935 23.2832 8.01025C25.2264 7.31116 27.454 7.09787 29.9542 7.3941C32.7624 7.72588 34.919 8.57901 36.4001 9.92981C37.8931 11.2925 38.4382 13.0106 38.0471 15.096C37.8694 16.0558 37.5376 16.8852 37.0637 17.5843C36.5897 18.2834 36.0802 18.8522 35.5233 19.3024C34.9664 19.7527 34.2673 20.2504 33.4141 20.7954C32.4781 21.376 31.779 21.8856 31.3169 22.324C30.8429 22.7624 30.5585 23.2956 30.4282 23.9236L24.1244 23.1771C24.3496 22.004 24.788 21.068 25.4515 20.3689ZM22.8447 31.4122C22.2286 30.6065 22.0153 29.6941 22.2049 28.6632C22.4063 27.6087 22.9395 26.7911 23.8164 26.1986C24.6932 25.6062 25.7122 25.381 26.8971 25.5232C28.082 25.6654 28.9826 26.1157 29.6106 26.8859C30.2386 27.6561 30.4519 28.5684 30.2504 29.623C30.0608 30.6539 29.5158 31.4833 28.6153 32.0995C27.7266 32.7275 26.6839 32.9645 25.5108 32.8223C24.3377 32.6801 23.4609 32.218 22.8447 31.4122Z" fill="white"/>
<path d="M42.5973 26.163C42.9883 25.7483 43.5333 25.3099 44.2087 24.8359C44.6827 24.516 45.0382 24.2316 45.287 23.9946C45.5358 23.7577 45.678 23.497 45.7373 23.2126C45.8084 22.8097 45.7017 22.4661 45.4055 22.1936C45.1093 21.9092 44.6945 21.7433 44.1495 21.6722C43.6044 21.6011 43.0594 21.6722 42.5617 21.8855C42.064 22.0988 41.6256 22.4187 41.2583 22.8571L38.4619 20.8309C39.2203 19.9304 40.1682 19.2787 41.3057 18.864C42.4551 18.4493 43.7585 18.3308 45.2396 18.5085C46.8985 18.7099 48.1663 19.2076 49.0432 20.0015C49.92 20.8072 50.2399 21.8144 50.0148 23.0467C49.9081 23.6155 49.7186 24.1013 49.4342 24.516C49.1617 24.9307 48.8536 25.2625 48.5218 25.535C48.19 25.7957 47.7753 26.0919 47.2776 26.4119C46.7326 26.7555 46.3179 27.0517 46.0335 27.3124C45.761 27.5731 45.5832 27.8811 45.5121 28.2603L41.7915 27.8219C41.9219 27.1347 42.1825 26.5777 42.5736 26.163H42.5973ZM41.0687 32.6682C40.7014 32.1942 40.5829 31.6492 40.6895 31.0449C40.808 30.4287 41.128 29.9429 41.6375 29.5874C42.147 29.2438 42.7513 29.1016 43.4504 29.1845C44.1495 29.2675 44.6827 29.54 45.05 29.9903C45.4173 30.4406 45.5477 30.9856 45.4292 31.6018C45.3107 32.2061 44.9908 32.6919 44.4694 33.0592C43.9481 33.4265 43.3319 33.5687 42.6328 33.4858C41.9337 33.4028 41.4242 33.1303 41.0569 32.6563L41.0687 32.6682Z" fill="white"/>
<path d="M90.8585 72.8842C87.8607 74.3297 85.2065 76.4033 82.967 78.8561C71.4141 91.4754 75.3006 102.341 75.5495 102.969C81.1304 116.892 94.0578 127.39 107.838 125.008C112.554 128.954 118.787 128.99 123.266 125.044C121.879 123.041 96.3683 116.513 87.2564 96.2506C85.242 91.7716 84.6377 86.7358 86.0241 82.0317C87.5289 76.9129 90.4912 74.6971 91.6287 72.5287C91.368 72.6472 91.1073 72.7657 90.8585 72.8842Z" fill="url(#paint3_linear_175_20358)"/>
<g style="mix-blend-mode:multiply" opacity="0.67">
<path d="M132.887 70.1826C123.574 68.3223 114.936 73.3226 111.097 85.7878C108.929 92.3285 106.737 99.0588 103.833 105.102C101.499 109.652 98.2407 114.676 93.8921 118.598C94.4727 119.356 95.0178 120.127 95.5391 120.92C98.1104 124.842 100.042 129.144 102.352 133.22C104.307 136.68 105.54 139.843 107.519 144.002C110.149 144.358 113.254 144.062 115.611 143.28C115.872 143.197 116.109 143.09 116.358 142.995C116.678 142.877 116.998 142.746 117.306 142.604C119.676 141.49 121.773 139.772 123.408 137.45C126.051 138.161 129.238 137.592 132.508 136.087C140.815 132.734 147.64 124.143 151.064 116.145C151.491 115.138 151.692 114.593 152.095 113.562C160.33 96.1558 149.571 73.5359 132.887 70.1826Z" fill="#D0D2D3"/>
</g>
<path d="M86.9366 74.934C83.9388 76.3796 81.486 79.0931 79.2347 81.5458C67.6818 94.1651 75.2178 107.602 75.4667 108.23C81.0476 122.153 90.124 129.428 103.916 127.058C108.632 131.004 114.865 131.04 119.344 127.094C117.958 125.091 89.0339 123.053 79.3413 103.064C72.457 88.8567 86.5693 76.7469 87.7068 74.5786C87.4461 74.697 87.1854 74.8155 86.9366 74.934Z" fill="url(#paint4_linear_175_20358)"/>
<path d="M109.343 82.079C103.715 97.945 97.897 115.02 81.5215 120.304C81.403 120.34 81.2727 120.363 81.1423 120.399C80.9172 120.458 80.7039 120.506 80.4195 120.565C78.7014 120.932 77.398 121.122 74.3528 121.43C76.4856 130.246 87.9082 137.865 96.2736 136.573C105.836 142.604 116.82 141.325 122.531 133.741C135.66 135.068 147.201 123.219 152.142 112.448C152.604 111.441 152.818 110.896 153.256 109.865C162.084 92.4588 150.543 69.8389 132.686 66.4856C122.721 64.6253 113.455 69.6256 109.355 82.0909L109.343 82.079Z" fill="url(#paint5_linear_175_20358)"/>
<path d="M147.592 119.344C147.355 119.309 125.506 125.992 121.441 117.816C102.945 122.757 106.784 89.6269 106.784 89.6269C106.902 87.9917 100.457 113.538 81.9009 120.186C88.5127 129.902 103.668 135.909 113.763 132.592C116.37 133.694 119 134.44 121.572 134.89C121.903 134.523 122.223 134.156 122.531 133.753C133.966 134.902 143.315 125.909 147.592 119.368V119.344Z" fill="url(#paint6_linear_175_20358)"/>
<path d="M74.3528 121.418C77.398 121.11 78.7133 120.932 80.4314 120.565C80.7039 120.506 80.9172 120.458 81.1542 120.399C81.2845 120.363 81.403 120.34 81.5333 120.304C85.4791 119.214 87.6356 117.437 91.8065 114.32C91.8776 114.32 91.9132 114.32 91.9843 114.32C91.9843 114.32 91.8895 125.719 105.492 124.416C108.952 130.08 117.472 132.675 123.112 129.428C128.953 131.561 134.44 129.961 142.023 126.004C141.987 126.205 139.949 127.532 139.914 127.734C134.06 132.378 127.437 134.962 122.543 133.729C116.832 141.325 105.848 142.604 96.2855 136.561C87.9319 137.853 76.4975 130.234 74.3646 121.418H74.3528Z" fill="#0FEFFF"/>
<defs>
<linearGradient id="paint0_linear_175_20358" x1="118.337" y1="199.942" x2="118.337" y2="42.7163" gradientUnits="userSpaceOnUse">
<stop stop-color="#FF9000"/>
<stop offset="1" stop-color="#FF4262"/>
</linearGradient>
<linearGradient id="paint1_linear_175_20358" x1="0.884518" y1="-18.2065" x2="54.5846" y2="50.7316" gradientUnits="userSpaceOnUse">
<stop stop-color="#00E4F5"/>
<stop offset="0.13" stop-color="#03E4F1"/>
<stop offset="0.26" stop-color="#0DE5E5"/>
<stop offset="0.39" stop-color="#1FE6D1"/>
<stop offset="0.52" stop-color="#37E8B5"/>
<stop offset="0.65" stop-color="#56EB91"/>
<stop offset="0.78" stop-color="#7CEE65"/>
<stop offset="0.9" stop-color="#A9F132"/>
<stop offset="1" stop-color="#D1F505"/>
</linearGradient>
<linearGradient id="paint2_linear_175_20358" x1="4.77491" y1="-21.2451" x2="58.475" y2="47.6811" gradientUnits="userSpaceOnUse">
<stop stop-color="#00E4F5"/>
<stop offset="0.13" stop-color="#03E4F1"/>
<stop offset="0.26" stop-color="#0DE5E5"/>
<stop offset="0.39" stop-color="#1FE6D1"/>
<stop offset="0.52" stop-color="#37E8B5"/>
<stop offset="0.65" stop-color="#56EB91"/>
<stop offset="0.78" stop-color="#7CEE65"/>
<stop offset="0.9" stop-color="#A9F132"/>
<stop offset="1" stop-color="#D1F505"/>
</linearGradient>
<linearGradient id="paint3_linear_175_20358" x1="103.703" y1="125.553" x2="83.0381" y2="70.0285" gradientUnits="userSpaceOnUse">
<stop stop-color="#FF9000"/>
<stop offset="0.54" stop-color="#FF4262"/>
<stop offset="0.69" stop-color="#FC385C"/>
<stop offset="0.92" stop-color="#F4204B"/>
<stop offset="0.98" stop-color="#F21947"/>
</linearGradient>
<linearGradient id="paint4_linear_175_20358" x1="82.9192" y1="67.2007" x2="97.3268" y2="109.695" gradientUnits="userSpaceOnUse">
<stop stop-color="#0FEFFF"/>
<stop offset="1" stop-color="#00C6ED"/>
</linearGradient>
<linearGradient id="paint5_linear_175_20358" x1="111.405" y1="122.603" x2="132.71" y2="63.4167" gradientUnits="userSpaceOnUse">
<stop stop-color="#FF9000"/>
<stop offset="0.54" stop-color="#FF4262"/>
<stop offset="0.69" stop-color="#FC385C"/>
<stop offset="0.92" stop-color="#F4204B"/>
<stop offset="0.98" stop-color="#F21947"/>
</linearGradient>
<linearGradient id="paint6_linear_175_20358" x1="126.131" y1="15.4121" x2="115.286" y2="114.8" gradientUnits="userSpaceOnUse">
<stop stop-color="#0FEFFF"/>
<stop offset="1" stop-color="#00C6ED"/>
</linearGradient>
</defs>
</svg>
