<svg width="210" height="180" viewBox="0 0 210 180" fill="none" xmlns="http://www.w3.org/2000/svg">
<path d="M121.279 88.4424C119.553 106.637 98.4596 117.13 80.8054 112.635C79.7724 112.412 79.2442 112.306 78.2112 112.071C56.8126 107.341 37.9846 90.4731 37.069 68.7692C30.0378 62.6536 28.0423 53.134 32.2446 45.2225C35.813 46.948 37.6089 47.7814 41.2478 49.366C61.5783 57.7119 81.9088 64.6609 101.265 67.3254C115.633 69.7904 121.936 78.3593 121.279 88.4541V88.4424Z" fill="url(#paint0_linear_175_20462)"/>
<path d="M96.3585 66.7267C95.9477 66.762 56.8713 65.7407 66.121 80.8125C50.028 88.5949 63.6325 106.648 73.2226 110.592C49.981 104.089 47.8212 89.7922 47.1991 74.8143C39.1702 67.8301 34.7331 58.0522 39.5106 49.0139C43.5837 50.9859 54.512 54.7538 58.8316 56.1741C66.9309 58.8387 70.4524 60.4116 96.3585 66.7267Z" fill="#00C6ED"/>
<path d="M58.7963 56.139C58.4324 56.1625 45.0509 60.5173 53.162 73.7228C42.6915 80.2609 58.1507 101.847 59.8762 104.618C47.0346 96.6591 37.2098 83.5946 36.5759 68.4758C29.5448 62.3602 28.0423 53.1458 32.2328 45.2343C35.8012 46.9598 37.5972 47.7932 41.236 49.3778C47.0933 51.7841 52.9507 54.0496 58.7845 56.1507L58.7963 56.139Z" fill="#0FEFFF"/>
<path d="M176.718 152.028C173.83 159.13 161.447 161.876 150.706 154.317C131.667 140.912 123.732 129.843 116.689 106.167C121.971 102.974 124.612 101.401 129.941 98.3024C135.47 122.037 155.308 144.633 176.73 152.028H176.718Z" fill="#FF4262"/>
<path d="M196.016 139.421C195.147 146.804 184.876 153.319 173.443 150.056C153.171 144.269 143.182 137.015 130.693 118.551C134.824 114.102 136.914 111.883 141.116 107.505C152.138 126.286 175.544 139.785 196.027 139.421H196.016Z" fill="#F5E905"/>
<path d="M209.397 120.018C210.97 127.061 204.537 136.71 193.973 138.095C175.239 140.56 153.113 134.609 137.771 121.204C140.705 116.039 142.196 113.48 145.213 108.374C159.122 122.272 192.87 127.859 209.397 120.018Z" fill="#00C6ED"/>
<path d="M87.0736 28.1315C90.9941 26.8286 94.9616 25.69 98.9643 24.7275V1.26288C82.437 1.67371 69.1611 15.1843 69.1611 31.8173C69.1611 33.3668 69.2785 34.8927 69.5015 36.3717C74.7602 32.6977 80.8406 30.2092 87.0618 28.1433L87.0736 28.1315Z" fill="#FF4262"/>
<path d="M144.45 86.3411C142.748 81.4815 138.463 70.5298 137.454 67.9239C136.785 66.1749 136.245 64.2616 135.787 62.2778C138.322 61.2331 144.708 56.6318 147.619 52.5938C141.703 52.5938 136.421 46.9947 136.421 46.9947C136.421 46.9947 141.574 43.0859 144.098 40.9144C137.219 37.076 131.796 25.5491 130.693 22.908C126.467 10.3247 114.588 1.23938 100.573 1.23938C83.0123 1.23938 75.0068 14.6091 75.0068 32.1694C75.0068 47.2178 81.0168 59.2376 93.7762 62.3717C78.4813 69.4851 73.5748 86.7636 79.4321 103.185C83.294 114.008 90.7829 123.398 99.5396 130.336L109.822 151.359L117.769 151.277L118.896 141.499L126.291 155.784L137.524 155.808L139.508 141.029C164.78 131.275 149.591 101.084 144.426 86.3528L144.45 86.3411Z" fill="url(#paint1_linear_175_20462)"/>
<path d="M107.933 147.532L111.971 155.62L117.253 155.878L118.192 147.649L107.933 147.532Z" fill="#D61847"/>
<path d="M111.595 154.833C106.676 155.561 96.3351 157.228 90.959 162.733C89.3626 164.364 89.0574 167.111 89.1513 167.088C89.2335 167.076 98.671 163.109 98.671 163.109C95.5604 165.022 93.3888 166.653 91.8746 168.684C90.3604 170.715 91.2407 172.534 91.229 172.546C103.413 163.895 121.208 159.916 125.469 159.834C125.657 158.848 123.826 156.582 121.455 155.643C119.283 154.786 117.1 154.023 111.595 154.845V154.833Z" fill="#D61847"/>
<path d="M134.367 161.101C129.12 161.888 118.074 163.66 112.323 169.541C110.621 171.29 110.292 174.213 110.397 174.189C110.48 174.178 120.563 169.928 120.563 169.928C117.241 171.971 114.917 173.708 113.309 175.88C111.7 178.051 112.639 179.988 112.616 180C125.622 170.762 144.638 166.513 149.18 166.43C149.38 165.386 147.431 162.956 144.884 161.958C142.572 161.054 140.224 160.221 134.355 161.101H134.367Z" fill="#D61847"/>
<path d="M126.256 155.667L130.681 164.717L136.491 164.951L137.536 155.796L126.256 155.667Z" fill="#D61847"/>
<path d="M82.2844 75.5303C83.4465 79.0752 86.4632 81.5989 88.7287 77.3849L89.3156 78.1714C91.0059 80.4251 92.7549 79.4039 94.0109 77.3849L94.5391 78.1714C96.7224 81.5167 99.6687 78.2887 100.467 75.5303C100.42 76.3402 100.232 77.1501 99.9269 77.9366C99.3282 79.5917 97.6262 81.1763 95.6777 80.6129C94.7151 80.3312 93.9874 79.6621 93.4474 78.9578H94.5508C92.9779 81.458 89.7968 81.458 88.2357 78.9578H89.3391C86.3106 82.9371 82.4018 79.5212 82.3079 75.5303H82.2844Z" fill="#D61847"/>
<path d="M83.1412 84.9794C84.0686 87.9139 86.2871 90.6724 88.353 86.9045C90.4189 90.6724 92.6374 87.9139 93.5647 84.9794C93.8347 87.1862 92.6257 90.3672 89.8907 90.0268C88.9516 89.8507 88.2591 89.2286 87.7778 88.583H88.9399C86.1345 92.2101 82.613 88.4891 83.153 84.9677L83.1412 84.9794Z" fill="#D61847"/>
<path d="M85.4303 95.6611C87.637 99.6168 89.879 99.6051 92.0858 95.6611C92.168 96.6001 91.9684 97.5744 91.4519 98.4313C89.2099 101.976 85.0077 99.2412 85.4303 95.6611Z" fill="#D61847"/>
<g style="mix-blend-mode:multiply">
<g style="mix-blend-mode:multiply">
<path d="M85.8293 10.266C87.414 7.35491 91.2289 5.81721 94.3865 6.87365C91.8041 8.77523 89.0104 9.89036 85.8293 10.266Z" fill="#F5E905"/>
</g>
</g>
<path d="M88.0242 27.4625C91.8391 26.1947 95.7127 25.0913 99.6216 24.1406V1.26288C83.5051 1.66198 70.5579 14.8439 70.5579 31.0543C70.5579 32.5686 70.6752 34.0476 70.8865 35.5031C76.0161 31.9112 81.9439 29.4932 88.0125 27.4742L88.0242 27.4625Z" fill="#FF4262"/>
<path d="M86.6744 28.1315C90.5949 26.8286 94.5624 25.69 98.5652 24.7275V1.26288C82.0378 1.67371 68.762 15.1843 68.762 31.8173C68.762 33.3668 68.8793 34.8927 69.1024 36.3717C74.3611 32.6977 80.4414 30.2092 86.6627 28.1433L86.6744 28.1315Z" fill="#FF4262"/>
<path d="M113.907 39.4589C111.595 46.1262 116.63 48.3095 114.553 53.6151C112.944 57.7235 109.505 60.3763 104.012 62.3131C99.9034 63.7569 95.3842 63.44 91.6397 61.2567C88.3882 59.3668 85.125 58.2047 82.2375 55.5637C76.6031 50.3871 73.293 42.6869 73.293 34.7167C73.293 28.5307 75.265 22.462 78.8451 17.6259C80.5824 15.2783 82.3666 13.2593 84.902 12.0033C88.1535 10.3717 89.879 8.31755 93.4239 7.64847C105.69 5.35953 115.327 11.9681 118.215 15.4309C121.103 18.8819 122.652 22.3447 122.382 26.9578C121.889 35.2332 115.233 35.6323 113.907 39.4706V39.4589Z" fill="white"/>
<path d="M103.625 23.2016C107.263 18.835 115.48 19.9736 117.534 25.3497L117.393 25.5375C113.461 22.7438 108.296 22.1099 103.695 23.4246L103.613 23.2016H103.625Z" fill="#231F20"/>
<path d="M99.9034 1.27472C83.5404 1.86163 70.4524 15.3018 70.4524 31.8057C70.4524 33.3551 70.5698 34.8811 70.7928 36.3601C76.0515 32.686 82.1319 30.1976 88.3531 28.1316C92.1563 26.8639 96.0181 25.7723 99.9034 24.8097V1.27472Z" fill="#FF4262"/>
<g style="mix-blend-mode:multiply">
<g style="mix-blend-mode:multiply">
<path d="M87.1089 10.2662C88.6935 7.35516 92.5084 5.81746 95.666 6.87389C93.0836 8.77548 90.2899 9.8906 87.1089 10.2662Z" fill="#F5E905"/>
</g>
</g>
<path d="M99.9036 1.30994C84.2566 2.22551 71.8494 15.1844 71.8494 31.0544C71.8494 32.5687 71.9667 34.0477 72.178 35.5032C77.3076 31.9113 83.2354 29.4933 89.304 27.4743C92.802 26.3122 96.3352 25.3027 99.9036 24.4106V1.30994Z" fill="#FF4262"/>
<path d="M87.9539 28.1316C91.8745 26.8287 95.842 25.6901 99.8447 24.7275V1.26294C83.3174 1.67378 70.0415 15.1844 70.0415 31.8174C70.0415 33.3668 70.1589 34.8928 70.3819 36.3718C75.6406 32.6977 81.721 30.2093 87.9422 28.1433L87.9539 28.1316Z" fill="#FF4262"/>
<path d="M99.9033 26.5939C98.9759 25.6901 95.7362 23.1194 92.6139 27.2395C92.4143 40.6328 78.3872 53.2748 78.3872 53.2748L95.4897 56.6319L99.8915 46.6192V26.5939H99.9033Z" fill="#ED5700"/>
<path d="M95.4783 34.2119C95.4783 34.2119 91.5578 41.1726 86.5925 47.9456C98.9763 44.7293 99.8919 36.9117 99.8919 36.9117L99.974 31.1952L95.4783 34.2119Z" fill="#D61847"/>
<path d="M100.009 1.26302C99.9268 1.26302 100.079 1.02826 100.009 1.02826C81.0753 1.02826 65.4988 16.6048 65.4988 35.5385C65.4988 43.4852 68.2103 50.7981 72.753 56.6202C72.4008 50.6924 73.422 38.6608 88.0008 37.3696C98.53 36.4423 99.0347 33.003 100.009 31.9701V1.26302Z" fill="#F5E905"/>
<path d="M83.8808 7.10852C74.9715 16.6869 68.4099 29.0471 69.7598 42.3582C69.7598 44.2833 70.2763 46.1262 70.3584 48.1217L70.1589 48.1921C67.6117 40.8323 67.107 32.6625 69.8537 25.2909C72.483 18.2833 77.7417 10.7826 83.8925 7.10852H83.8808Z" fill="white"/>
<g style="mix-blend-mode:multiply">
<g style="mix-blend-mode:multiply">
<path d="M85.7354 10.2662C87.32 7.35516 91.1349 5.81746 94.2925 6.87389C91.7101 8.77548 88.9164 9.8906 85.7354 10.2662Z" fill="#F5E905"/>
</g>
</g>
<path d="M99.9033 34.4585C98.8703 38.6608 97.2739 47.8635 78.3872 53.2748C83.6811 60.7285 90.1841 62.9705 99.9033 63.8861V34.4585Z" fill="#FF9000"/>
<path d="M62.0516 22.361C62.4811 11.3292 49.1128 1.85195 32.1925 1.19306C15.2723 0.534178 1.20742 8.94314 0.777835 19.975C0.348249 31.0069 13.7166 40.4841 30.6369 41.143C47.5571 41.8019 61.622 33.3929 62.0516 22.361Z" fill="url(#paint2_linear_175_20462)"/>
<path d="M53.8429 31.4888C54.5707 33.989 56.8127 40.0341 62.2474 43.3795C62.9635 43.8138 62.7757 44.8468 61.9775 44.9642C53.9251 46.1262 48.0912 43.8725 42.5978 38.203C42.1987 37.7921 42.2691 37.1231 42.7386 36.8414L52.54 30.9723C53.0212 30.6788 53.6786 30.9371 53.8429 31.5005V31.4888Z" fill="url(#paint3_linear_175_20462)"/>
<g style="mix-blend-mode:multiply" opacity="0.59">
<g style="mix-blend-mode:multiply">
<path d="M19.497 31.9348C18.8749 31.3009 18.5932 30.5145 18.6519 29.5989C18.7223 28.6598 19.1097 27.8851 19.814 27.2747C20.53 26.6643 21.4103 26.3591 22.455 26.3591C23.4997 26.3591 24.3331 26.6643 24.9553 27.2747C25.5774 27.8851 25.8474 28.6598 25.7769 29.5989C25.7183 30.5145 25.3192 31.3009 24.6031 31.9348C23.8871 32.5686 23.0185 32.8973 21.9973 32.8973C20.976 32.8973 20.1191 32.5804 19.4853 31.9348H19.497ZM21.1521 10.63H25.8004C26.493 10.63 27.0094 11.2404 26.9038 11.9212L25.0844 23.6476C25.0022 24.1993 24.5327 24.5984 23.981 24.5984H21.3047C20.6943 24.5984 20.1896 24.1054 20.1778 23.495L20.0252 11.7686C20.0252 11.1465 20.5182 10.63 21.1521 10.63Z" fill="#00C6ED"/>
</g>
<g style="mix-blend-mode:multiply">
<path d="M28.3125 31.9347C27.6903 31.3008 27.4086 30.5144 27.4673 29.5988C27.5377 28.6598 27.9251 27.885 28.6294 27.2747C29.3454 26.6643 30.2258 26.3591 31.2705 26.3591C32.3152 26.3591 33.1486 26.6643 33.7707 27.2747C34.3928 27.885 34.6628 28.6598 34.5924 29.5988C34.5337 30.5144 34.1346 31.3008 33.4186 31.9347C32.7025 32.5686 31.8339 32.8972 30.8127 32.8972C29.7915 32.8972 28.9346 32.5803 28.3007 31.9347H28.3125ZM29.9675 10.6299H34.6158C35.3084 10.6299 35.8249 11.2403 35.7192 11.9211L33.8998 23.6476C33.8177 24.1993 33.3481 24.5984 32.7964 24.5984H30.1201C29.5097 24.5984 29.005 24.1054 28.9933 23.495L28.8407 11.7685C28.8407 11.1464 29.3337 10.6299 29.9675 10.6299Z" fill="#00C6ED"/>
</g>
<g style="mix-blend-mode:multiply">
<path d="M37.1396 31.9347C36.5175 31.3008 36.2358 30.5144 36.2945 29.5988C36.3649 28.6598 36.7522 27.885 37.4683 27.2747C38.1843 26.6643 39.0647 26.3591 40.1094 26.3591C41.1541 26.3591 41.9875 26.6643 42.6096 27.2747C43.2317 27.885 43.5017 28.6598 43.4313 29.5988C43.3726 30.5144 42.9735 31.3008 42.2574 31.9347C41.5414 32.5686 40.6728 32.8972 39.6516 32.8972C38.6303 32.8972 37.7735 32.5803 37.1396 31.9347ZM38.7947 10.6299H43.443C44.1355 10.6299 44.652 11.2403 44.5464 11.9211L42.727 23.6476C42.6448 24.1993 42.1753 24.5984 41.6236 24.5984H38.9473C38.3369 24.5984 37.8322 24.1054 37.8204 23.495L37.6678 11.7685C37.6678 11.1464 38.1608 10.6299 38.7947 10.6299Z" fill="#00C6ED"/>
</g>
</g>
<path d="M18.4404 30.9487C17.8183 30.3149 17.5365 29.5284 17.5952 28.6129C17.6657 27.6738 18.053 26.8991 18.7573 26.2887C19.4733 25.6783 20.3537 25.3731 21.3984 25.3731C22.4431 25.3731 23.2765 25.6783 23.8986 26.2887C24.5208 26.8991 24.7907 27.6738 24.7203 28.6129C24.6616 29.5284 24.2625 30.3149 23.5465 30.9487C22.8305 31.5826 21.9618 31.9113 20.9406 31.9113C19.9194 31.9113 19.0625 31.5943 18.4286 30.9487H18.4404ZM20.0955 9.64398H24.7438C25.4363 9.64398 25.9528 10.2544 25.8472 10.9352L24.0277 22.6616C23.9456 23.2133 23.4761 23.6124 22.9244 23.6124H20.2481C19.6377 23.6124 19.1329 23.1194 19.1212 22.509L18.9686 10.7826C18.9686 10.1605 19.4616 9.64398 20.0955 9.64398Z" fill="white"/>
<path d="M27.2558 30.9487C26.6337 30.3148 26.352 29.5284 26.4107 28.6128C26.4811 27.6737 26.8685 26.899 27.5727 26.2886C28.2888 25.6783 29.1691 25.3731 30.2138 25.3731C31.2585 25.3731 32.0919 25.6783 32.7141 26.2886C33.3362 26.899 33.6062 27.6737 33.5357 28.6128C33.477 29.5284 33.0779 30.3148 32.3619 30.9487C31.6459 31.5825 30.7773 31.9112 29.756 31.9112C28.7348 31.9112 27.8779 31.5943 27.2441 30.9487H27.2558ZM28.9109 9.64392H33.5592C34.2518 9.64392 34.7682 10.2543 34.6626 10.9351L32.8432 22.6615C32.761 23.2132 32.2915 23.6123 31.7398 23.6123H29.0635C28.4531 23.6123 27.9484 23.1193 27.9366 22.5089L27.784 10.7825C27.784 10.1604 28.277 9.64392 28.9109 9.64392Z" fill="white"/>
<path d="M36.083 30.9487C35.4608 30.3148 35.1791 29.5284 35.2378 28.6128C35.3082 27.6737 35.6956 26.899 36.4116 26.2886C37.1277 25.6783 38.008 25.3731 39.0527 25.3731C40.0974 25.3731 40.9308 25.6783 41.5529 26.2886C42.1751 26.899 42.445 27.6737 42.3746 28.6128C42.3159 29.5284 41.9168 30.3148 41.2008 30.9487C40.4848 31.5825 39.6161 31.9112 38.5949 31.9112C37.5737 31.9112 36.7168 31.5943 36.083 30.9487ZM37.738 9.64392H42.3864C43.0789 9.64392 43.5954 10.2543 43.4897 10.9351L41.6703 22.6615C41.5882 23.2132 41.1186 23.6123 40.5669 23.6123H37.8906C37.2803 23.6123 36.7755 23.1193 36.7638 22.5089L36.6112 10.7825C36.6112 10.1604 37.1042 9.64392 37.738 9.64392Z" fill="white"/>
<path d="M107.204 90.2031C108.93 109.876 130.023 121.215 147.678 116.356C148.711 116.121 149.239 115.992 150.272 115.745C171.67 110.639 190.498 92.3982 191.414 68.9218C198.445 62.3015 200.441 52.0071 196.238 43.45C192.67 45.3164 190.874 46.2085 187.235 47.934C166.905 56.9489 146.574 64.4731 127.218 67.3489C112.85 70.0252 106.547 79.2866 107.204 90.2031Z" fill="url(#paint4_linear_175_20462)"/>
<path d="M132.113 66.715C132.524 66.7502 171.6 65.6586 162.35 81.9394C178.443 90.3557 164.839 109.876 155.249 114.149C178.49 107.118 180.65 91.6586 181.272 75.46C189.301 67.9123 193.738 57.3245 188.961 47.5583C184.888 49.6947 173.959 53.7678 169.64 55.3055C161.54 58.1814 158.019 59.8834 132.113 66.715Z" fill="#00C6ED"/>
<path d="M169.675 55.2586C170.039 55.2821 183.421 59.9891 175.309 74.2745C185.78 81.3526 170.321 104.676 168.595 107.681C181.437 99.0772 191.262 84.9562 191.895 68.6049C198.927 61.9846 200.429 52.0306 196.239 43.4735C192.67 45.3399 190.874 46.232 187.235 47.9575C181.378 50.5516 175.521 53.0049 169.687 55.2821L169.675 55.2586Z" fill="#0FEFFF"/>
<defs>
<linearGradient id="paint0_linear_175_20462" x1="42.9381" y1="75.1431" x2="107.381" y2="93.8419" gradientUnits="userSpaceOnUse">
<stop stop-color="#FF9000"/>
<stop offset="0.54" stop-color="#FF4262"/>
<stop offset="0.69" stop-color="#FC385C"/>
<stop offset="0.92" stop-color="#F4204B"/>
<stop offset="0.98" stop-color="#F21947"/>
</linearGradient>
<linearGradient id="paint1_linear_175_20462" x1="114.353" y1="194.238" x2="114.353" y2="38.4846" gradientUnits="userSpaceOnUse">
<stop stop-color="#FF9000"/>
<stop offset="1" stop-color="#FF4262"/>
</linearGradient>
<linearGradient id="paint2_linear_175_20462" x1="0.86953" y1="-18.0363" x2="54.0669" y2="50.2563" gradientUnits="userSpaceOnUse">
<stop stop-color="#00E4F5"/>
<stop offset="0.13" stop-color="#03E4F1"/>
<stop offset="0.26" stop-color="#0DE5E5"/>
<stop offset="0.39" stop-color="#1FE6D1"/>
<stop offset="0.52" stop-color="#37E8B5"/>
<stop offset="0.65" stop-color="#56EB91"/>
<stop offset="0.78" stop-color="#7CEE65"/>
<stop offset="0.9" stop-color="#A9F132"/>
<stop offset="1" stop-color="#D1F505"/>
</linearGradient>
<linearGradient id="paint3_linear_175_20462" x1="4.73043" y1="-21.0395" x2="57.9278" y2="47.2414" gradientUnits="userSpaceOnUse">
<stop stop-color="#00E4F5"/>
<stop offset="0.13" stop-color="#03E4F1"/>
<stop offset="0.26" stop-color="#0DE5E5"/>
<stop offset="0.39" stop-color="#1FE6D1"/>
<stop offset="0.52" stop-color="#37E8B5"/>
<stop offset="0.65" stop-color="#56EB91"/>
<stop offset="0.78" stop-color="#7CEE65"/>
<stop offset="0.9" stop-color="#A9F132"/>
<stop offset="1" stop-color="#D1F505"/>
</linearGradient>
<linearGradient id="paint4_linear_175_20462" x1="175.431" y1="79.4391" x2="100.694" y2="91.4234" gradientUnits="userSpaceOnUse">
<stop stop-color="#FF9000"/>
<stop offset="0.54" stop-color="#FF4262"/>
<stop offset="0.69" stop-color="#FC385C"/>
<stop offset="0.92" stop-color="#F4204B"/>
<stop offset="0.98" stop-color="#F21947"/>
</linearGradient>
</defs>
</svg>
