<svg width="180" height="180" viewBox="0 0 180 180" fill="none" xmlns="http://www.w3.org/2000/svg">
<path d="M93.5777 59.7251C75.6724 64.9186 69.0281 86.5169 76.7441 101.982C77.1563 102.905 77.3706 103.35 77.7828 104.274C86.4222 123.152 106.751 137.265 128.663 133.819C136.082 139.128 145.974 139.078 153.13 133.638C150.756 130.67 149.585 129.17 147.343 126.119C135.274 108.94 124.607 91.4796 118.408 74.0855C113.313 61.2749 103.585 57.1366 93.5941 59.7251H93.5777Z" fill="url(#paint0_linear_175_20409)"/>
<path d="M123.815 119.459C108.449 121.651 94.0063 111.578 86.6365 99.3441C86.9992 100.465 87.4444 101.586 87.9555 102.708C88.2852 103.416 88.4501 103.763 88.7963 104.455C95.2758 119.261 112.324 129.615 128.943 127.274C134.713 131.544 142.561 131.725 148.431 127.554C146.617 125.13 145.727 123.91 143.979 121.437C143.699 121.041 143.551 120.844 143.287 120.431C137.269 124.388 129.438 123.943 123.832 119.475L123.815 119.459Z" fill="#FF4262"/>
<path d="M122.727 105.098C114.467 105.675 105.926 101.339 101.343 93.3755C101.541 94.0021 101.788 94.6451 102.068 95.2551C102.25 95.6508 102.349 95.8486 102.53 96.2443C105.811 104.257 116.412 110.885 125.398 109.78C128.58 112.451 133.18 112.897 136.873 110.72C135.933 109.203 135.455 108.428 134.548 106.895C134.4 106.648 134.334 106.516 134.186 106.269C130.46 108.363 125.876 107.818 122.744 105.098H122.727Z" fill="#FF4262"/>
<path d="M146.667 162.21C139.214 165.31 129.025 160.891 124.871 151.889C117.501 135.929 114.764 127.488 111.4 110.259C117.633 107.67 120.732 106.384 126.964 103.796C129.734 123.333 137.071 145.063 146.683 162.21H146.667Z" fill="#FF4262"/>
<path d="M162.742 169.844C155.504 172.861 145.199 168.541 140.682 159.721C132.669 144.074 129.569 135.732 125.48 118.634C131.548 116.112 134.581 114.859 140.649 112.336C144.227 131.725 152.437 153.126 162.742 169.86V169.844Z" fill="#F5E905"/>
<path d="M179.575 176.406C172.552 179.341 162.165 175.136 157.334 166.497C148.76 151.18 145.381 142.953 140.649 125.988C146.568 123.531 149.535 122.294 155.454 119.838C159.724 139.062 168.677 160.116 179.559 176.406H179.575Z" fill="#00C6ED"/>
<path d="M145.15 88.9901C143.468 84.1923 139.231 73.3766 138.241 70.8211C137.582 69.0899 137.038 67.1939 136.593 65.2484C136.988 62.9072 139.824 61.2255 145.183 62.4785C141.292 54.7954 135.554 50.7231 135.554 50.7231C135.554 50.7231 138.241 50.7066 141.72 53.1137C139.511 39.759 132.669 29.0093 131.581 26.4043C127.409 13.9729 115.687 5.02026 101.854 5.02026C84.5258 5.02026 76.6284 18.2101 76.6284 35.5383C76.6284 50.3933 82.5474 62.2477 95.1601 65.3473C80.0743 72.3709 75.227 89.4188 81.014 105.626C84.8226 116.31 92.2254 125.575 100.865 132.418L111.004 153.159L118.852 153.076L119.974 143.431L127.277 157.528H138.357L140.319 142.97C165.248 133.341 150.277 103.548 145.166 89.0066L145.15 88.9901Z" fill="url(#paint1_linear_175_20409)"/>
<path d="M116.808 41.5726C115.209 48.3489 120.369 49.9977 118.853 55.4055C117.682 59.5933 114.566 62.5445 109.372 65.0011C105.481 66.8312 101.013 66.9796 97.1223 65.1989C93.7424 63.6656 90.4119 62.8577 87.3288 60.5495C81.278 56.032 77.2715 48.7941 76.4637 40.9626C75.8536 34.8953 77.1726 28.729 80.2063 23.6344C81.6901 21.1614 83.2235 19.0015 85.5811 17.5012C88.6148 15.5722 90.0987 13.3793 93.5115 12.3736C105.316 8.8948 115.456 14.4345 118.638 17.5341C121.82 20.6338 123.683 23.8818 123.881 28.4323C124.227 36.61 117.731 37.6651 116.808 41.5562V41.5726Z" fill="white"/>
<path d="M109.125 149.383L113.115 157.38L118.309 157.627L119.248 149.499L109.125 149.383Z" fill="#D61847"/>
<path d="M114.797 156.967C109.9 156.77 99.5624 156.456 93.3302 160.809C91.4836 162.095 90.6758 164.7 90.7747 164.7C90.8571 164.7 100.749 162.606 100.749 162.606C97.3696 163.892 94.9789 165.063 93.1324 166.744C91.2858 168.426 91.8134 170.355 91.7804 170.355C105.185 164.238 123.189 163.678 127.327 164.387C127.69 163.463 126.338 160.924 124.211 159.589C122.265 158.369 120.287 157.215 114.797 156.984V156.967Z" fill="#D61847"/>
<path d="M135.999 165.722C130.756 165.508 119.726 165.178 113.066 169.811C111.087 171.179 110.23 173.966 110.329 173.966C110.411 173.966 120.979 171.723 120.979 171.723C117.369 173.092 114.813 174.345 112.851 176.142C110.889 177.939 111.433 180 111.417 180C125.744 173.455 144.952 172.861 149.387 173.62C149.766 172.647 148.332 169.926 146.057 168.492C143.979 167.189 141.869 165.953 136.016 165.706L135.999 165.722Z" fill="#D61847"/>
<path d="M127.195 157.412L131.564 166.349L137.302 166.579L138.341 157.544L127.195 157.412Z" fill="#D61847"/>
<path d="M83.8005 78.3228C84.9546 81.8181 87.9224 84.3076 90.1646 80.1528L90.7417 80.9277C92.4069 83.1535 94.1381 82.1313 95.3746 80.1528L95.8857 80.9277C98.0456 84.2252 100.947 81.0432 101.739 78.3228C101.689 79.1306 101.508 79.922 101.195 80.6969C100.601 82.3292 98.9194 83.8955 96.9904 83.3349C96.0341 83.0546 95.3252 82.3951 94.7976 81.7027H95.8857C94.3359 84.1757 91.2033 84.1757 89.6535 81.7027H90.7417C87.741 85.6266 83.883 82.2632 83.8005 78.3228Z" fill="#D61847"/>
<path d="M84.6579 87.6546C85.5647 90.5564 87.7575 93.2603 89.8019 89.5506C91.8299 93.2603 94.0227 90.5399 94.946 87.6546C95.2098 89.8309 94.0227 92.98 91.3187 92.6338C90.3955 92.4689 89.703 91.8424 89.2413 91.2159H90.379C87.6091 94.7936 84.1468 91.1334 84.6744 87.6546H84.6579Z" fill="#D61847"/>
<path d="M86.9166 98.19C89.0929 102.097 91.3022 102.081 93.4785 98.19C93.561 99.1133 93.3631 100.07 92.852 100.927C90.6427 104.422 86.5044 101.718 86.9166 98.19Z" fill="#D61847"/>
<path d="M88.3508 32.3727C91.978 30.7405 95.6712 29.2731 99.4138 27.9541L97.122 5.48193C81.3437 7.4769 69.951 21.7219 71.5667 37.6322C71.7151 39.116 71.9789 40.5669 72.3416 41.9683C77.024 37.929 82.5967 34.9612 88.3673 32.3727H88.3508Z" fill="#FF4262"/>
<path d="M101.079 35.0601C98.1609 36.0493 83.1739 40.2206 75.0127 51.5639C80.8987 60.6484 92.8025 67.3422 104.294 66.5838L101.096 35.0601H101.079Z" fill="#FF9000"/>
<path d="M95.3415 5.77856C95.1766 5.81154 95.0117 5.84451 94.8304 5.89398C76.6449 10.2466 65.45 28.5146 69.8026 46.7001C71.6327 54.3337 75.9194 60.7307 81.624 65.2648C79.9258 59.6591 77.9309 47.2276 91.8462 43.2707C100.271 40.7152 103.849 46.5187 103.849 46.5187L95.3415 5.77856Z" fill="#ED5700"/>
<path d="M98.1445 5.28412C97.9796 5.28412 97.7982 5.30061 97.6334 5.31709C79.0357 7.21313 65.4831 23.8158 67.3792 42.4135C68.1705 50.2285 71.5669 57.1367 76.612 62.3961C75.6723 56.6091 75.359 44.0128 89.67 41.9684C98.3588 40.5669 102.085 44.0293 102.085 44.0293L98.1445 5.28412Z" fill="#F5E905"/>
<path d="M82.7125 12.7527C74.914 23.0408 69.704 35.8514 72.3585 48.7774C72.5398 50.6735 73.2323 52.4211 73.5291 54.3831L73.3312 54.482C70.0997 47.5079 68.7807 39.5281 70.7427 32.0099C72.6223 24.8709 77.0409 16.9734 82.7125 12.7527Z" fill="white"/>
<g style="mix-blend-mode:multiply">
<g style="mix-blend-mode:multiply">
<path d="M84.8555 15.6711C86.125 12.6539 89.7192 10.7578 92.9178 11.4833C90.5766 13.6101 87.9386 14.9786 84.8555 15.6711Z" fill="#F5E905"/>
</g>
</g>
<path d="M110.312 27.575C111.851 27.575 113.098 26.3275 113.098 24.7886C113.098 23.2498 111.851 22.0023 110.312 22.0023C108.773 22.0023 107.526 23.2498 107.526 24.7886C107.526 26.3275 108.773 27.575 110.312 27.575Z" fill="white"/>
<path d="M116.258 26.4956C115.957 23.5333 113.311 21.3758 110.349 21.6767C107.387 21.9776 105.229 24.6229 105.53 27.5852L105.948 31.7024C106.249 34.6647 108.895 36.8222 111.857 36.5213C114.819 36.2204 116.977 33.575 116.676 30.6127L116.258 26.4956Z" fill="#231F20"/>
<path d="M108.713 31.3999C109.833 31.3999 110.741 30.4919 110.741 29.3719C110.741 28.2519 109.833 27.344 108.713 27.344C107.593 27.344 106.685 28.2519 106.685 29.3719C106.685 30.4919 107.593 31.3999 108.713 31.3999Z" fill="white"/>
<path d="M118.44 24.8873L102.843 29.207L101.788 18.7705L117.649 17.1548L118.44 24.8873Z" fill="white"/>
<path d="M103.602 28.6465C107.312 23.3046 116.561 22.3813 120.37 28.0365L120.254 28.3497C114.879 26.6515 109.076 27.6737 103.717 28.9597L103.619 28.6465H103.602Z" fill="#231F20"/>
<path d="M61.2305 22.0749C61.6546 11.1836 48.4634 1.82747 31.7671 1.17731C15.0708 0.527145 1.19203 8.82919 0.767921 19.7204C0.34381 30.6117 13.535 39.9679 30.2313 40.618C46.9276 41.2682 60.8064 32.9661 61.2305 22.0749Z" fill="url(#paint2_linear_175_20409)"/>
<path d="M53.1343 31.0702C53.8433 33.5433 56.0691 39.5117 61.4275 42.8092C62.1364 43.2378 61.955 44.2601 61.1637 44.3755C53.2168 45.5296 47.4627 43.2873 42.0384 37.6981C41.6427 37.3024 41.7086 36.6264 42.1703 36.3626L51.8483 30.5756C52.3265 30.2953 52.9695 30.5426 53.1343 31.1032V31.0702Z" fill="url(#paint3_linear_175_20409)"/>
<path d="M18.5436 28.7949C17.8511 28.0859 17.5379 27.2286 17.6203 26.2063C17.6863 25.1676 18.1149 24.3103 18.8898 23.6343C19.6647 22.9583 20.6375 22.6286 21.7916 22.6286C22.9457 22.6286 23.869 22.9583 24.5615 23.6343C25.2539 24.3103 25.5672 25.1676 25.4848 26.2063C25.4188 27.2286 24.9901 28.0859 24.1988 28.7949C23.4074 29.5038 22.4346 29.85 21.2805 29.85C20.1264 29.85 19.2361 29.5038 18.5436 28.7949Z" fill="#00C6ED"/>
<path d="M28.568 28.7949C27.8756 28.086 27.5623 27.2286 27.6447 26.2064C27.7107 25.1677 28.1394 24.3104 28.9143 23.6344C29.6892 22.9584 30.6619 22.6287 31.816 22.6287C32.9701 22.6287 33.8934 22.9584 34.5859 23.6344C35.2784 24.3104 35.5916 25.1677 35.5092 26.2064C35.4432 27.2286 35.0146 28.086 34.2232 28.7949C33.4318 29.5039 32.459 29.8501 31.3049 29.8501C30.1508 29.8501 29.2605 29.5039 28.568 28.7949Z" fill="#00C6ED"/>
<path d="M38.8398 28.7949C38.1473 28.086 37.834 27.2286 37.9165 26.2064C37.9824 25.1677 38.4111 24.3104 39.186 23.6344C39.9609 22.9584 40.9336 22.6287 42.0878 22.6287C43.2419 22.6287 44.1652 22.9584 44.8576 23.6344C45.5501 24.3104 45.8633 25.1677 45.7809 26.2064C45.715 27.2286 45.2863 28.086 44.4949 28.7949C43.7035 29.5039 42.7308 29.8501 41.5766 29.8501C40.4225 29.8501 39.5322 29.5039 38.8398 28.7949Z" fill="#00C6ED"/>
<path d="M17.7524 28.1025C17.0599 27.3935 16.7466 26.5362 16.8291 25.514C16.895 24.4753 17.3237 23.6179 18.0986 22.9419C18.8735 22.266 19.8462 21.9362 21.0003 21.9362C22.1545 21.9362 23.0778 22.266 23.7702 22.9419C24.4627 23.6179 24.7759 24.4753 24.6935 25.514C24.6276 26.5362 24.1989 27.3935 23.4075 28.1025C22.6161 28.8114 21.6434 29.1577 20.4892 29.1577C19.3351 29.1577 18.4448 28.8114 17.7524 28.1025Z" fill="white"/>
<path d="M27.7768 28.1025C27.0843 27.3935 26.771 26.5362 26.8535 25.514C26.9194 24.4753 27.3481 23.6179 28.123 22.9419C28.8979 22.266 29.8707 21.9362 31.0248 21.9362C32.1789 21.9362 33.1022 22.266 33.7946 22.9419C34.4871 23.6179 34.8004 24.4753 34.7179 25.514C34.652 26.5362 34.2233 27.3935 33.4319 28.1025C32.6405 28.8114 31.6678 29.1577 30.5137 29.1577C29.3595 29.1577 28.4692 28.8114 27.7768 28.1025Z" fill="white"/>
<path d="M38.0648 28.1025C37.3724 27.3935 37.0591 26.5362 37.1416 25.514C37.2075 24.4753 37.6362 23.6179 38.4111 22.9419C39.186 22.266 40.1587 21.9362 41.3129 21.9362C42.467 21.9362 43.3903 22.266 44.0827 22.9419C44.7752 23.6179 45.0884 24.4753 45.006 25.514C44.9401 26.5362 44.5114 27.3935 43.72 28.1025C42.9286 28.8114 41.9559 29.1577 40.8017 29.1577C39.6476 29.1577 38.7573 28.8114 38.0648 28.1025Z" fill="white"/>
<g style="mix-blend-mode:multiply" opacity="0.67">
<path d="M162.709 143.415C162.231 142.228 161.753 140.991 161.143 139.425V139.392C159.016 133.456 157.037 127.537 155.24 121.652V121.685C154.844 120.448 154.482 119.195 154.119 117.958C153.229 114.595 152.404 111.248 151.349 107.769C148.892 97.9758 147.128 88.3637 146.386 79.0319C144.754 64.7044 136.247 57.8786 125.695 57.7962C114.566 58.027 105.745 64.9517 101.03 74.1846C101.03 74.1351 101.03 74.1021 101.063 74.0527C98.3754 79.6913 97.1224 83.6978 96.7102 88.4626C95.6055 101.24 99.1833 110.506 104.855 117.101C106.669 120.333 108.812 123.366 111.219 126.153C111.466 126.433 111.714 126.713 111.961 126.993C112.159 127.208 112.357 127.439 112.571 127.653C119.974 135.649 129.751 141.403 140.962 142.623C146.865 149.993 156.361 152.137 164.885 148.592C163.995 146.498 163.352 145.014 162.725 143.415H162.709Z" fill="#D0D2D3"/>
</g>
<path d="M126.355 54.647C106.867 55.0262 94.287 75.0418 97.8812 92.7327C98.0461 93.7714 98.1285 94.2825 98.3099 95.3212C101.904 116.738 118.606 136.506 141.655 138.963C147.706 146.333 157.697 148.971 166.402 145.426C164.803 141.782 164.045 139.952 162.594 136.259C155.076 115.634 149.041 95.1068 147.508 75.8661C145.843 61.5387 137.137 54.7129 126.355 54.6305V54.647Z" fill="url(#paint4_linear_175_20409)"/>
<path d="M152.586 104.62C152.52 105.016 146.205 119.706 130.79 109.5C121.425 124.784 93.248 104.785 101.162 70.9035C98.425 76.5422 97.139 80.5486 96.7103 85.3134C93.924 116.656 119.99 126.861 135.901 128.56C142.792 136.968 152.916 142.046 162.857 137.99C161.027 133.836 160.005 128.576 158.356 124.355C155.883 117.579 154.696 111.347 152.586 104.604V104.62Z" fill="#00C6ED"/>
<path d="M156.559 118.486C156.51 118.832 150.97 131.692 137.467 122.756C129.801 132.599 107.856 115.815 105.037 113.902C112.654 127.125 125.893 137.743 141.952 139.458C148.003 146.827 157.697 148.971 166.402 145.426C164.803 141.782 164.045 139.952 162.594 136.259C160.434 130.307 158.406 124.388 156.559 118.486Z" fill="#0FEFFF"/>
<defs>
<linearGradient id="paint0_linear_175_20409" x1="87.0981" y1="40.2371" x2="111.598" y2="108.775" gradientUnits="userSpaceOnUse">
<stop stop-color="#0FEFFF"/>
<stop offset="1" stop-color="#00C6ED"/>
</linearGradient>
<linearGradient id="paint1_linear_175_20409" x1="115.456" y1="195.482" x2="115.456" y2="41.7705" gradientUnits="userSpaceOnUse">
<stop stop-color="#FF9000"/>
<stop offset="1" stop-color="#FF4262"/>
</linearGradient>
<linearGradient id="paint2_linear_175_20409" x1="13.609" y1="-7.74573" x2="53.5742" y2="58.0716" gradientUnits="userSpaceOnUse">
<stop stop-color="#00E4F5"/>
<stop offset="0.13" stop-color="#03E4F1"/>
<stop offset="0.26" stop-color="#0DE5E5"/>
<stop offset="0.39" stop-color="#1FE6D1"/>
<stop offset="0.52" stop-color="#37E8B5"/>
<stop offset="0.65" stop-color="#56EB91"/>
<stop offset="0.78" stop-color="#7CEE65"/>
<stop offset="0.9" stop-color="#A9F132"/>
<stop offset="1" stop-color="#D1F505"/>
</linearGradient>
<linearGradient id="paint3_linear_175_20409" x1="20.2092" y1="-11.7638" x2="60.1744" y2="54.07" gradientUnits="userSpaceOnUse">
<stop stop-color="#00E4F5"/>
<stop offset="0.13" stop-color="#03E4F1"/>
<stop offset="0.26" stop-color="#0DE5E5"/>
<stop offset="0.39" stop-color="#1FE6D1"/>
<stop offset="0.52" stop-color="#37E8B5"/>
<stop offset="0.65" stop-color="#56EB91"/>
<stop offset="0.78" stop-color="#7CEE65"/>
<stop offset="0.9" stop-color="#A9F132"/>
<stop offset="1" stop-color="#D1F505"/>
</linearGradient>
<linearGradient id="paint4_linear_175_20409" x1="132.354" y1="122.558" x2="125.56" y2="48.1836" gradientUnits="userSpaceOnUse">
<stop stop-color="#FF9000"/>
<stop offset="0.54" stop-color="#FF4262"/>
<stop offset="0.69" stop-color="#FC385C"/>
<stop offset="0.92" stop-color="#F4204B"/>
<stop offset="0.98" stop-color="#F21947"/>
</linearGradient>
</defs>
</svg>
