<svg width="200" height="96" viewBox="0 0 200 96" fill="none" xmlns="http://www.w3.org/2000/svg">
<path fill-rule="evenodd" clip-rule="evenodd" d="M19.5422 10.0236L190.983 0.0621793V0.0809037C198.491 -0.686797 200.514 4.1441 199.896 8.84393L189.223 62.8638C188.024 72.2822 182.707 77.8434 171.341 77.8434L79.348 77.7497L52.4972 94.4332C49.314 96.3992 45.4194 94.0961 45.7564 90.4636L47.0671 77.7123L10.9665 77.6748C4.35675 77.6561 -0.736291 71.8328 0.0875832 65.2793L4.07588 24.7597C5.27424 15.3413 10.1239 10.7538 19.5422 10.0236ZM185.422 39.0651C185.871 39.1213 186.283 38.7842 186.321 38.3349L186.264 38.3536L187.088 28.9352C187.126 28.5046 186.807 28.1675 186.377 28.1675C184.111 28.2424 182.051 28.6356 180.198 29.3472C178.119 30.1336 176.397 31.3319 175.011 32.9235L175.311 29.422C175.348 29.0476 175.048 28.7292 174.674 28.7292H164.394C164.02 28.7292 163.683 29.0476 163.645 29.422L162.503 42.9223C159.526 46.1242 153.478 48.6146 150.856 45.937C150.22 45.3003 150.033 44.2705 150.145 42.9785L151.156 31.3694H158.402C158.777 31.3694 159.114 31.0511 159.151 30.6766L159.825 22.906C159.863 22.5315 159.563 22.2132 159.189 22.2132H151.943L152.673 13.8059C152.71 13.4314 152.411 13.1131 152.036 13.1131H141.176C140.801 13.1131 140.464 13.4314 140.427 13.8059L137.862 43.0909C137.862 43.1283 137.843 43.2032 137.843 43.2032V43.1658C137.714 44.3562 137.617 45.4693 137.528 46.4928C137.125 51.1199 136.882 53.9171 134.566 53.7638C133.368 53.7638 132.6 52.4156 132.769 50.8428L133.106 46.3115L133.256 44.6075C133.724 39.4209 132.731 35.5262 130.316 32.9422C127.882 30.3583 124.511 29.0663 120.167 29.0663C117.92 29.0663 115.842 29.4408 113.876 30.1897C111.91 30.9387 110.187 32.0247 108.689 33.4478L108.97 30.3395C109.007 29.9651 108.708 29.6467 108.333 29.6467H98.0537C97.6792 29.6467 97.3422 29.9651 97.3047 30.3395L96.1063 44.0084V44.0458C95.8255 47.2477 95.0952 50.1687 92.867 50.1687C92.0993 50.1687 90.5826 49.8129 90.901 46.7796L91.2005 43.4654L92.9419 23.5988C92.9794 23.2243 92.6798 22.906 92.3053 22.906H81.4451C81.0706 22.906 80.7336 23.2243 80.6962 23.5988L80.4902 25.9393C78.3369 23.5239 75.1912 22.3255 71.0718 22.3255C67.8887 22.3255 64.9302 23.0558 62.1964 24.5163C59.4627 25.9768 57.2157 28.0739 55.4557 30.8077C54.0326 32.9984 53.1151 35.5075 52.6283 38.2787C51.3925 36.1816 49.7822 34.5151 47.7225 33.298C45.2696 31.8375 42.4422 31.1072 39.2778 31.1072C35.1584 31.1072 31.8255 32.3056 29.2602 34.7023L30.5896 19.6105C30.6271 19.1985 30.29 18.8428 29.8781 18.8428H19.1116C18.7371 18.8428 18.4375 19.1236 18.4001 19.4981L14.2245 67.339C14.1871 67.7509 14.5241 68.1067 14.936 68.1067H25.1408C25.5153 68.1067 25.8149 67.8258 25.8524 67.4513L26.2269 63.0323C28.2678 65.7287 31.5633 67.0768 36.1508 67.0768C39.3152 67.0768 42.2737 66.3466 44.9887 64.8673C47.7037 63.3881 49.9507 61.2723 51.7108 58.5385C53.1151 56.3477 54.0326 53.8574 54.5194 51.1236C55.7552 53.2582 57.3843 54.9621 59.444 56.1979C61.9156 57.6772 64.743 58.4262 67.9261 58.4262C72.5323 58.4262 76.09 57.078 78.599 54.363L79.5727 53.3518C80.2655 56.3103 81.6324 57.7708 84.1976 59.3249C86.7816 60.8791 91.6874 61.4408 94.7582 59.8492H94.7769L94.4211 63.9124C94.3837 64.2869 94.6833 64.6052 95.0578 64.6052H105.918C106.292 64.6052 106.629 64.2869 106.667 63.9124L108.09 47.7158C108.315 44.9633 109.139 42.8849 110.524 41.518C111.91 40.1511 113.651 39.4583 115.767 39.4583C119.437 39.4583 121.141 41.6865 120.897 46.0868L120.148 53.9136C119.793 58.5198 122.283 61.9276 125.71 63.8375C128.93 65.635 135.858 66.0844 139.322 64.3805C141.457 63.3319 144.397 61.3846 146.344 57.078C147.73 57.7146 149.284 58.1827 150.969 58.3887C153.796 58.7257 157.653 58.6134 161.436 56.0107L160.537 66.59C160.5 66.9645 160.799 67.2828 161.174 67.2828L171.903 67.3202C172.652 67.3577 173.007 67.2641 173.064 66.3279L174.356 47.6034C174.599 44.6824 175.535 42.5104 177.146 41.0874C178.756 39.6643 180.872 38.9528 183.493 38.9528C184.036 38.9528 184.673 38.9902 185.422 39.0651ZM72.7853 32.0622C70.6361 32.0643 68.8229 32.7945 67.3084 34.2529C65.8105 35.7134 64.9304 37.7357 64.7057 40.3196C64.481 42.9411 64.9866 45.0007 66.2224 46.48C67.4582 47.9592 69.1621 48.7082 71.3154 48.7082C73.4687 48.7082 75.285 47.9592 76.8017 46.48C78.2996 45.0007 79.1797 42.9411 79.4044 40.3196C79.6291 37.7357 79.1235 35.7134 77.869 34.2529C76.6163 32.7945 74.9342 32.0643 72.7853 32.0622ZM35.8606 40.8252C33.73 40.8273 31.8982 41.5576 30.4024 43.0159C28.9045 44.4764 28.0432 46.48 27.8185 49.0452C27.5938 51.6666 28.0993 53.7076 29.3351 55.1868C30.5709 56.666 32.2749 57.3963 34.4095 57.3963C36.544 57.3963 38.379 56.666 39.877 55.1868C41.3749 53.7076 42.2363 51.6666 42.4609 49.0452C42.6856 46.48 42.1801 44.4577 40.9255 43.0159C39.6915 41.5576 37.9908 40.8273 35.8606 40.8252Z" fill="url(#paint0_linear_5_1749)"/>
<defs>
<linearGradient id="paint0_linear_5_1749" x1="110.447" y1="7.42238" x2="76.0162" y2="84.3497" gradientUnits="userSpaceOnUse">
<stop stop-color="#FF9000"/>
<stop offset="1" stop-color="#FF4262"/>
</linearGradient>
</defs>
</svg>
