<svg width="200" height="120" viewBox="0 0 200 120" fill="none" xmlns="http://www.w3.org/2000/svg">
<path fill-rule="evenodd" clip-rule="evenodd" d="M19.5422 22.0236L190.983 12.0622V12.0809C198.491 11.3132 200.514 16.1441 199.896 20.8439L189.223 74.8638C188.024 84.2822 182.707 89.8434 171.341 89.8434L79.348 89.7497L52.4972 106.433C49.314 108.399 45.4194 106.096 45.7564 102.464L47.0671 89.7123L10.9665 89.6748C4.35675 89.6561 -0.736291 83.8328 0.0875832 77.2793L4.07588 36.7597C5.27424 27.3413 10.1239 22.7538 19.5422 22.0236ZM185.422 51.0651C185.871 51.1213 186.283 50.7842 186.321 50.3349L186.264 50.3536L187.088 40.9352C187.126 40.5046 186.807 40.1675 186.377 40.1675C184.111 40.2424 182.051 40.6356 180.198 41.3472C178.119 42.1336 176.397 43.3319 175.011 44.9235L175.311 41.422C175.348 41.0476 175.048 40.7292 174.674 40.7292H164.394C164.02 40.7292 163.683 41.0476 163.645 41.422L162.503 54.9223C159.526 58.1242 153.478 60.6146 150.856 57.937C150.22 57.3003 150.033 56.2705 150.145 54.9785L151.156 43.3694H158.402C158.777 43.3694 159.114 43.0511 159.151 42.6766L159.825 34.906C159.863 34.5315 159.563 34.2132 159.189 34.2132H151.943L152.673 25.8059C152.71 25.4314 152.411 25.1131 152.036 25.1131H141.176C140.801 25.1131 140.464 25.4314 140.427 25.8059L137.862 55.0909C137.862 55.1283 137.843 55.2032 137.843 55.2032V55.1658C137.714 56.3562 137.617 57.4693 137.528 58.4928C137.125 63.1199 136.882 65.9171 134.566 65.7638C133.368 65.7638 132.6 64.4156 132.769 62.8428L133.106 58.3115L133.256 56.6075C133.724 51.4209 132.731 47.5262 130.316 44.9422C127.882 42.3583 124.511 41.0663 120.167 41.0663C117.92 41.0663 115.842 41.4408 113.876 42.1897C111.91 42.9387 110.187 44.0247 108.689 45.4478L108.97 42.3395C109.007 41.9651 108.708 41.6467 108.333 41.6467H98.0537C97.6792 41.6467 97.3422 41.9651 97.3047 42.3395L96.1063 56.0084V56.0458C95.8255 59.2477 95.0952 62.1687 92.867 62.1687C92.0993 62.1687 90.5826 61.8129 90.901 58.7796L91.2005 55.4654L92.9419 35.5988C92.9794 35.2243 92.6798 34.906 92.3053 34.906H81.4451C81.0706 34.906 80.7336 35.2243 80.6962 35.5988L80.4902 37.9393C78.3369 35.5239 75.1912 34.3255 71.0718 34.3255C67.8887 34.3255 64.9302 35.0558 62.1964 36.5163C59.4627 37.9768 57.2157 40.0739 55.4557 42.8077C54.0326 44.9984 53.1151 47.5075 52.6283 50.2787C51.3925 48.1816 49.7822 46.5151 47.7225 45.298C45.2696 43.8375 42.4422 43.1072 39.2778 43.1072C35.1584 43.1072 31.8255 44.3056 29.2602 46.7023L30.5896 31.6105C30.6271 31.1985 30.29 30.8428 29.8781 30.8428H19.1116C18.7371 30.8428 18.4375 31.1236 18.4001 31.4981L14.2245 79.339C14.1871 79.7509 14.5241 80.1067 14.936 80.1067H25.1408C25.5153 80.1067 25.8149 79.8258 25.8524 79.4513L26.2269 75.0323C28.2678 77.7287 31.5633 79.0768 36.1508 79.0768C39.3152 79.0768 42.2737 78.3466 44.9887 76.8673C47.7037 75.3881 49.9507 73.2723 51.7108 70.5385C53.1151 68.3477 54.0326 65.8574 54.5194 63.1236C55.7552 65.2582 57.3843 66.9621 59.444 68.1979C61.9156 69.6772 64.743 70.4262 67.9261 70.4262C72.5323 70.4262 76.09 69.078 78.599 66.363L79.5727 65.3518C80.2655 68.3103 81.6324 69.7708 84.1976 71.3249C86.7816 72.8791 91.6874 73.4408 94.7582 71.8492H94.7769L94.4211 75.9124C94.3837 76.2869 94.6833 76.6052 95.0578 76.6052H105.918C106.292 76.6052 106.629 76.2869 106.667 75.9124L108.09 59.7158C108.315 56.9633 109.139 54.8849 110.524 53.518C111.91 52.1511 113.651 51.4583 115.767 51.4583C119.437 51.4583 121.141 53.6865 120.897 58.0868L120.148 65.9136C119.793 70.5198 122.283 73.9276 125.71 75.8375C128.93 77.635 135.858 78.0844 139.322 76.3805C141.457 75.3319 144.397 73.3846 146.344 69.078C147.73 69.7146 149.284 70.1827 150.969 70.3887C153.796 70.7257 157.653 70.6134 161.436 68.0107L160.537 78.59C160.5 78.9645 160.799 79.2828 161.174 79.2828L171.903 79.3202C172.652 79.3577 173.007 79.2641 173.064 78.3279L174.356 59.6034C174.599 56.6824 175.535 54.5104 177.146 53.0874C178.756 51.6643 180.872 50.9528 183.493 50.9528C184.036 50.9528 184.673 50.9902 185.422 51.0651ZM72.7853 44.0622C70.6361 44.0643 68.8229 44.7945 67.3084 46.2529C65.8105 47.7134 64.9304 49.7357 64.7057 52.3196C64.481 54.9411 64.9866 57.0007 66.2224 58.48C67.4582 59.9592 69.1621 60.7082 71.3154 60.7082C73.4687 60.7082 75.285 59.9592 76.8017 58.48C78.2996 57.0007 79.1797 54.9411 79.4044 52.3196C79.6291 49.7357 79.1235 47.7134 77.869 46.2529C76.6163 44.7945 74.9342 44.0643 72.7853 44.0622ZM35.8606 52.8252C33.73 52.8273 31.8982 53.5576 30.4024 55.0159C28.9045 56.4764 28.0432 58.48 27.8185 61.0452C27.5938 63.6666 28.0993 65.7076 29.3351 67.1868C30.5709 68.666 32.2749 69.3963 34.4095 69.3963C36.544 69.3963 38.379 68.666 39.877 67.1868C41.3749 65.7076 42.2363 63.6666 42.4609 61.0452C42.6856 58.48 42.1801 56.4577 40.9255 55.0159C39.6915 53.5576 37.9908 52.8273 35.8606 52.8252Z" fill="white"/>
</svg>
